<svg xmlns="http://www.w3.org/2000/svg" width="151" height="36" viewBox="0 0 151 36">
  <g id="Logo" transform="translate(-186.72 -128.931)">
    <g id="Grupo_40" data-name="Grupo 40">
      <path id="Caminho_205" data-name="Caminho 205" d="M207.8,145.5c0-6.068,4.114-11.185,10.534-11.185s9.855,4.3,9.855,10.913v1.449H212.546a6.185,6.185,0,0,0,6.421,5.8,7.4,7.4,0,0,0,6.284-2.853l2.8,2.355c-1.944,3.215-5.245,4.664-9.313,4.664C211.823,156.644,207.8,152.024,207.8,145.5Zm15.6-2.4c-.272-3.034-1.944-4.8-4.973-4.8-2.984,0-5.064,1.675-5.742,4.8Z" fill="#fff"/>
      <path id="Caminho_206" data-name="Caminho 206" d="M231.894,134.817h4.023a11.278,11.278,0,0,1,.633,3.125,8.275,8.275,0,0,1,7.053-3.623c3.391,0,5.787,1.4,7.1,4.121a8.66,8.66,0,0,1,7.821-4.121c5.29,0,8.183,3.306,8.183,9.827v12h-4.973V143.919c0-3.442-1.4-5.253-4.2-5.253-3.572,0-5.742,2.4-5.742,6.883v10.6h-4.973V143.919c0-3.442-1.447-5.253-4.25-5.253-3.481,0-5.7,2.4-5.7,6.883v10.6h-4.973Z" fill="#fff"/>
      <path id="Caminho_207" data-name="Caminho 207" d="M271.041,134.817h4.07a12.363,12.363,0,0,1,.633,3.17,9.356,9.356,0,0,1,7.549-3.668c5.967,0,9.765,4.71,9.765,11.23s-3.978,11.095-9.945,11.095a8.894,8.894,0,0,1-7.053-3.261v11.548h-5.019Zm17,10.823c0-4.71-2.351-6.974-5.651-6.974-3.663,0-6.329,2.264-6.329,6.249v.951c0,4.3,2.667,6.43,6.238,6.43C285.509,152.3,288.04,150.349,288.04,145.64Z" fill="#fff"/>
      <path id="Caminho_208" data-name="Caminho 208" d="M296.312,146.908V134.817h4.973v12.362c0,3.486,1.582,5.162,4.34,5.162,3.571,0,5.832-2.355,5.832-6.838V134.817h4.973v21.328h-3.978a12.018,12.018,0,0,1-.678-3.124,8.444,8.444,0,0,1-7.053,3.623C299.43,156.644,296.312,153.383,296.312,146.908Z" fill="#fff"/>
      <path id="Caminho_209" data-name="Caminho 209" d="M319.773,153.066l2.3-2.9c1.855,1.721,3.978,2.309,6.781,2.309,2.351,0,3.934-.589,3.934-2.4,0-1.721-1.583-2.355-4.521-2.763-4.567-.634-7.551-2.264-7.551-6.611,0-3.668,3.391-6.385,8.545-6.385a10.567,10.567,0,0,1,8.273,3.4l-2.441,2.807a7.292,7.292,0,0,0-5.787-2.173c-2.758,0-3.753,1.041-3.753,2.355,0,1.676,1.357,2.038,4.522,2.582,4.34.724,7.64,2.219,7.64,6.7,0,3.714-3.12,6.657-8.364,6.657C324.881,156.644,321.987,155.375,319.773,153.066Z" fill="#fff"/>
      <g id="Grupo_39" data-name="Grupo 39">
        <path id="Caminho_210" data-name="Caminho 210" d="M191.3,146.862V128.931h4.973v18.158c0,3.532,1.492,5.208,4.341,5.208a6.344,6.344,0,0,0,3.752-1.358l2.125,3.17a9.033,9.033,0,0,1-6.51,2.536C194.51,156.644,191.3,153.61,191.3,146.862Z" fill="#fff"/>
        <rect id="Retângulo_4" data-name="Retângulo 4" width="17.994" height="4.256" transform="matrix(0.981, -0.195, 0.195, 0.981, 186.72, 136.183)" fill="#d8006b"/>
      </g>
    </g>
  </g>
</svg>